<?xml version="1.0" encoding="iso-8859-1"?>
<!-- Generator: Adobe Illustrator 16.0.0, SVG Export Plug-In . SVG Version: 6.00 Build 0)  -->
<!DOCTYPE svg PUBLIC "-//W3C//DTD SVG 1.1//EN" "http://www.w3.org/Graphics/SVG/1.1/DTD/svg11.dtd">
<svg version="1.1" id="Capa_1" xmlns="http://www.w3.org/2000/svg" xmlns:xlink="http://www.w3.org/1999/xlink" x="0px" y="0px"
	 width="95.05px" height="95.05px" viewBox="0 0 95.05 95.05" style="enable-background:new 0 0 95.05 95.05;" xml:space="preserve"
	>
<g>
	<path d="M93.721,79.458l-0.188-0.415l-3.184-7.08l-1.951,5.136l-10.979-4.012c0,0,0-28.628,0-29.985
		c0-1.357-0.854-2.143-1.649-2.445c-0.795-0.302-25.242-9.604-25.242-9.604V15.024h5.486L50.52,9.528l-0.326-0.325l-2.277-2.276
		l-2.61,2.609l-5.487,5.488h5.487v16.049L20.55,40.525c-1.277,0.43-2.122,1.157-2.122,2.441l-0.013,29.871l-11.77,4.438
		l-1.948-5.129l-3.18,7.071l-0.192,0.427L0,82.588l2.936,1.319l0.449,0.203l7.06,3.174l-1.946-5.129l11.704-4.41l26.546,10.121
		c0.933,0.4,1.495,0.275,2.33,0.005l26.229-10.003l11.241,4.109l-1.944,5.123l7.102-3.191l0.41-0.186l2.933-1.318L93.721,79.458z
		 M45.303,81.666l-21.606-8.24V46.978l21.605,8.219L45.303,81.666L45.303,81.666z M47.917,50.519l-19.389-7.393l19.448-7.422
		l19.381,7.402L47.917,50.519z M72.137,73.425l-21.551,8.219V55.158l21.551-8.221V73.425z"/>
</g>
<g>
</g>
<g>
</g>
<g>
</g>
<g>
</g>
<g>
</g>
<g>
</g>
<g>
</g>
<g>
</g>
<g>
</g>
<g>
</g>
<g>
</g>
<g>
</g>
<g>
</g>
<g>
</g>
<g>
</g>
</svg>
