<?xml version="1.0" encoding="iso-8859-1"?>
<!-- Generator: Adobe Illustrator 18.1.1, SVG Export Plug-In . SVG Version: 6.00 Build 0)  -->
<svg version="1.1" id="Capa_1" xmlns="http://www.w3.org/2000/svg" xmlns:xlink="http://www.w3.org/1999/xlink" x="0px" y="0px"
	 viewBox="0 0 84 84" style="enable-background:new 0 0 84 84;" xml:space="preserve">
<g>
	<path style="fill:#030104;" d="M74,12c0-6.627-5.373-12-12-12S50,5.373,50,12c0,4.865,2.901,9.045,7.062,10.93
		c-1.137,9.738-7.42,11.705-16.479,14.537c-4.395,1.373-9.511,2.977-13.833,6.082V23.02C31.014,21.178,34,16.939,34,12
		c0-6.627-5.373-12-12-12S10,5.373,10,12c0,4.939,2.986,9.178,7.25,11.02v37.963C12.986,62.822,10,67.061,10,72
		c0,6.627,5.373,12,12,12s12-5.373,12-12c0-4.865-2.9-9.045-7.062-10.928c1.137-9.74,7.42-11.707,16.479-14.537
		c9.22-2.881,21.628-6.762,23.172-23.447C70.938,21.285,74,17,74,12z M15.077,12c0-3.822,3.101-6.922,6.923-6.922
		c3.823,0,6.923,3.1,6.923,6.922c0,3.824-3.1,6.924-6.923,6.924C18.178,18.924,15.077,15.824,15.077,12z M22,78.924
		c-3.822,0-6.923-3.1-6.923-6.924c0-3.822,3.101-6.922,6.923-6.922c3.823,0,6.923,3.1,6.923,6.922
		C28.923,75.824,25.823,78.924,22,78.924z M62,18.924c-3.822,0-6.923-3.1-6.923-6.924c0-3.822,3.101-6.922,6.923-6.922
		c3.823,0,6.923,3.1,6.923,6.922C68.923,15.824,65.823,18.924,62,18.924z"/>
</g>
<g>
</g>
<g>
</g>
<g>
</g>
<g>
</g>
<g>
</g>
<g>
</g>
<g>
</g>
<g>
</g>
<g>
</g>
<g>
</g>
<g>
</g>
<g>
</g>
<g>
</g>
<g>
</g>
<g>
</g>
</svg>
