<?xml version="1.0" encoding="iso-8859-1"?>
<!-- Generator: Adobe Illustrator 16.0.0, SVG Export Plug-In . SVG Version: 6.00 Build 0)  -->
<!DOCTYPE svg PUBLIC "-//W3C//DTD SVG 1.1//EN" "http://www.w3.org/Graphics/SVG/1.1/DTD/svg11.dtd">
<svg version="1.1" id="Capa_1" xmlns="http://www.w3.org/2000/svg" xmlns:xlink="http://www.w3.org/1999/xlink" x="0px" y="0px"
	 width="547.375px" height="547.375px" viewBox="0 0 547.375 547.375" style="enable-background:new 0 0 547.375 547.375;"
	 xml:space="preserve">
<g>
	<g>
		<path d="M396.029,154.237l-45.891-0.619l-0.421-42.919h14.854V57.93h-50.889V0h-67.961v57.93h-50.865v52.769h13.078v42.907
			h-51.642l-2.646,0.975c-2.282,0.864-55.875,21.55-55.875,71.82v320.974h351.831V226.402
			C449.603,181.731,414.56,159.667,396.029,154.237z M418.601,516.362H128.775v-289.96c0-24.382,25.637-38.132,33.496-41.781h76.672
			v-73.922h79.76l0.713,73.922h69.654c6.598,2.575,29.52,13.51,29.52,41.781v289.96H418.601z"/>
		<path d="M225.345,350.173c0,0,12.039,2.044,21.872,8.466c9.814,6.445,13.592,18.135,13.592,18.135h38.021
			c0,0,5.78-16.676,14.946-20.949c9.155-4.25,23.425-7.123,23.425-7.123s-0.607,0.188-0.222-18.321
			c12.693-11.759,19.256-26.413,19.256-43.824c0-36.263-33.759-65.678-75.435-65.678c-41.641,0-75.411,29.415-75.411,65.678
			c0,17.271,7.654,32.976,20.149,44.7C224.901,343.762,225.345,350.173,225.345,350.173z M311.534,280.449
			c11.56,0,20.925,10.93,20.925,24.405c0,13.487-9.365,24.405-20.925,24.405c-11.549,0-20.902-10.918-20.902-24.405
			C290.631,291.379,299.985,280.449,311.534,280.449z M279.772,332.495l2.312,2.965c5.792,7.474,8.268,17.516,8.361,17.937
			l-6.049,1.46c-0.023-0.07-1.565-6.364-4.928-12.121c-3.9,6.002-4.32,11.537-4.32,11.607l-6.23-0.409
			c0.035-0.397,0.753-9.925,8.355-18.602L279.772,332.495z M251.974,280.449c11.549,0,20.926,10.93,20.926,24.405
			c0,13.487-9.377,24.405-20.926,24.405c-11.548,0-20.902-10.918-20.902-24.405C231.061,291.379,240.414,280.449,251.974,280.449z"
			/>
		<path d="M360.157,425.397c-8.595-4.25-19.267-1.285-23.892,6.609c-1.167,1.973-1.821,4.087-2.031,6.189l-35.184-17.423
			l34.962-18.029c0.304,1.88,0.969,3.736,2.031,5.487c4.753,7.812,15.496,10.604,23.997,6.225c8.5-4.379,11.537-14.281,6.772-22.105
			c-3.515-5.756-10.276-8.78-16.99-8.22c4.017-4.975,4.753-11.864,1.249-17.633c-4.764-7.812-15.507-10.603-24.02-6.224
			c-8.478,4.391-11.514,14.281-6.761,22.104c1.494,2.452,3.585,4.414,5.979,5.792l-45.553,23.518l-46.008-22.793
			c2.377-1.449,4.42-3.434,5.868-5.897c4.618-7.894,1.401-17.737-7.176-21.988c-8.571-4.239-19.273-1.284-23.886,6.609
			c-3.409,5.815-2.54,12.704,1.588,17.598c-6.732-0.468-13.452,2.674-16.838,8.489c-4.624,7.894-1.407,17.737,7.176,21.977
			c8.588,4.25,19.279,1.296,23.891-6.598c1.04-1.787,1.676-3.655,1.938-5.535l35.283,17.469l-34.851,17.971
			c-0.251-2.09-0.958-4.203-2.154-6.153c-4.759-7.823-15.496-10.614-23.997-6.235c-8.507,4.391-11.531,14.281-6.761,22.104
			c3.509,5.757,10.276,8.781,16.996,8.221c-4.028,4.985-4.758,11.864-1.255,17.632c4.77,7.812,15.507,10.604,24.008,6.225
			c8.489-4.379,11.525-14.258,6.743-22.105c-1.337-2.219-3.217-4.039-5.354-5.395l44.963-23.19l45.4,22.467
			c-2.126,1.39-3.971,3.234-5.278,5.488c-4.601,7.894-1.401,17.726,7.193,21.976c8.57,4.239,19.244,1.285,23.868-6.609
			c3.433-5.814,2.546-12.692-1.589-17.597c6.738,0.456,13.452-2.675,16.839-8.501C371.951,439.491,368.728,429.647,360.157,425.397z
			"/>
	</g>
</g>
<g>
</g>
<g>
</g>
<g>
</g>
<g>
</g>
<g>
</g>
<g>
</g>
<g>
</g>
<g>
</g>
<g>
</g>
<g>
</g>
<g>
</g>
<g>
</g>
<g>
</g>
<g>
</g>
<g>
</g>
</svg>
