<?xml version="1.0" encoding="iso-8859-1"?>
<!-- Generator: Adobe Illustrator 18.1.1, SVG Export Plug-In . SVG Version: 6.00 Build 0)  -->
<svg version="1.1" id="Capa_1" xmlns="http://www.w3.org/2000/svg" xmlns:xlink="http://www.w3.org/1999/xlink" x="0px" y="0px"
	 viewBox="0 0 22.804 22.804" style="enable-background:new 0 0 22.804 22.804;" xml:space="preserve">
<g>
	<g>
		<path style="fill:#010002;" d="M12.259,7.101c0.041-0.134-0.031-0.273-0.163-0.312c-0.132-0.041-0.271,0.032-0.312,0.163
			c0,0-0.305,0.981-0.369,1.193c-0.134,0.037-0.536,0.147-0.815,0.227c-0.009-0.045-0.018-0.089-0.028-0.13h-3.88
			C6.68,8.283,6.671,8.327,6.663,8.372c-0.28-0.078-0.682-0.189-0.814-0.227C5.783,7.934,5.478,6.952,5.478,6.952
			C5.436,6.821,5.297,6.748,5.165,6.789C5.034,6.827,4.962,6.968,5.001,7.101l0.45,1.45L6.589,8.87
			C6.582,8.975,6.577,9.082,6.577,9.19c0,0.132,0.007,0.263,0.02,0.392l-1.139,0.51L5.104,12.1c-0.026,0.136,0.064,0.268,0.2,0.29
			c0.136,0.021,0.266-0.067,0.29-0.204c0,0,0.27-1.521,0.308-1.745c0.11-0.05,0.471-0.211,0.778-0.349
			c0.269,1.147,1.041,1.979,1.951,1.979c0.909,0,1.682-0.83,1.951-1.979c0.307,0.138,0.667,0.299,0.774,0.349
			c0.04,0.224,0.31,1.745,0.31,1.745c0.024,0.137,0.154,0.227,0.289,0.204c0.137-0.022,0.228-0.154,0.2-0.29l-0.353-2.008
			l-1.138-0.51c0.014-0.129,0.02-0.26,0.02-0.392c0-0.108-0.006-0.216-0.014-0.32l1.138-0.318L12.259,7.101z"/>
		<path style="fill:#010002;" d="M6.206,5.291c0.048,0.007,1.129,0.226,1.36,1.443C7.274,7.045,7.089,7.48,7.089,7.963
			c0,0.006,0,0.01,0,0.016h3.081c0-0.006,0-0.01,0-0.016c0-0.481-0.183-0.918-0.477-1.229c0.231-1.219,1.313-1.438,1.36-1.443
			c0.1-0.021,0.169-0.118,0.147-0.221c-0.018-0.099-0.114-0.167-0.215-0.147C10.974,4.926,9.728,5.166,9.372,6.47
			C9.153,6.337,8.9,6.262,8.631,6.262c-0.271,0-0.521,0.074-0.742,0.208C7.533,5.166,6.286,4.926,6.274,4.923
			c-0.103-0.02-0.2,0.05-0.216,0.147C6.039,5.173,6.106,5.27,6.206,5.291z"/>
		<path style="fill:#010002;" d="M22.371,19.875l-3.209-3.211V0H0.433v21.547h17.749l1.257,1.257c0,0,1.35,0.014,2.162-0.912
			C22.414,20.963,22.371,19.875,22.371,19.875z M1.666,20.315c0-1.124,0-17.96,0-19.082c1.104,0,15.159,0,16.265,0
			c0,0.763,0,8.785,0,14.199l-1.749-1.75l-0.807,0.483l-1.224-1.183c1.911-2.679,1.682-6.416-0.721-8.812
			c-2.679-2.678-7.021-2.673-9.689-0.002c-2.671,2.674-2.671,7.011,0,9.693c2.407,2.404,6.139,2.627,8.815,0.716l1.146,1.106
			l-0.458,0.927l3.705,3.704C13.495,20.315,2.632,20.315,1.666,20.315z M12.317,12.75c-2.058,2.056-5.402,2.061-7.466,0
			c-2.057-2.062-2.057-5.403,0.004-7.468c2.054-2.058,5.401-2.062,7.465,0.002C14.38,7.346,14.38,10.682,12.317,12.75z"/>
	</g>
</g>
<g>
</g>
<g>
</g>
<g>
</g>
<g>
</g>
<g>
</g>
<g>
</g>
<g>
</g>
<g>
</g>
<g>
</g>
<g>
</g>
<g>
</g>
<g>
</g>
<g>
</g>
<g>
</g>
<g>
</g>
</svg>
