<?xml version="1.0" encoding="iso-8859-1"?>
<!-- Generator: Adobe Illustrator 16.0.0, SVG Export Plug-In . SVG Version: 6.00 Build 0)  -->
<!DOCTYPE svg PUBLIC "-//W3C//DTD SVG 1.1//EN" "http://www.w3.org/Graphics/SVG/1.1/DTD/svg11.dtd">
<svg version="1.1" id="Capa_1" xmlns="http://www.w3.org/2000/svg" xmlns:xlink="http://www.w3.org/1999/xlink" x="0px" y="0px"
	 width="399.697px" height="399.697px" viewBox="0 0 399.697 399.697" style="enable-background:new 0 0 399.697 399.697;"
	 xml:space="preserve">
<g>
	<g>
		<path d="M243.24,165.729c-63.991,0-116.053,52.063-116.053,116.052c0,63.991,52.062,116.054,116.053,116.054
			c63.99,0,116.053-52.062,116.053-116.054C359.291,217.791,307.23,165.729,243.24,165.729z"/>
		<path d="M398.529,192.949L279.748,5.36c-1.381-2.178-3.777-3.498-6.355-3.498c-2.576,0-4.977,1.32-6.354,3.498l-50.626,79.951
			c-0.763,1.201-1.167,2.599-1.167,4.023v52.711c0,2.18,0.943,4.25,2.59,5.68c1.645,1.429,3.821,2.071,5.986,1.767
			c6.168-0.872,12.439-1.313,18.637-1.313c41.574,0,81.363,19.928,106.438,53.313c1.422,1.892,3.648,3.005,6.016,3.005h37.266
			c2.742,0,5.268-1.495,6.59-3.896C400.086,198.198,399.998,195.266,398.529,192.949z"/>
		<path d="M190.706,158.667c2.778-1.179,4.583-3.903,4.583-6.924V80.618c0-4.153-3.368-7.521-7.521-7.521H7.521
			C3.367,73.097,0,76.464,0,80.618v180.249c0,4.153,3.367,7.521,7.521,7.521h95.86c3.731,0,6.899-2.735,7.441-6.429
			C117.53,216.313,148.138,176.735,190.706,158.667z"/>
	</g>
</g>
<g>
</g>
<g>
</g>
<g>
</g>
<g>
</g>
<g>
</g>
<g>
</g>
<g>
</g>
<g>
</g>
<g>
</g>
<g>
</g>
<g>
</g>
<g>
</g>
<g>
</g>
<g>
</g>
<g>
</g>
</svg>
