<?xml version="1.0" encoding="iso-8859-1"?>
<!-- Generator: Adobe Illustrator 18.1.1, SVG Export Plug-In . SVG Version: 6.00 Build 0)  -->
<svg version="1.1" id="Capa_1" xmlns="http://www.w3.org/2000/svg" xmlns:xlink="http://www.w3.org/1999/xlink" x="0px" y="0px"
	 viewBox="0 0 16.325 16.325" style="enable-background:new 0 0 16.325 16.325;" xml:space="preserve">
<g>
	<g>
		<path style="fill:#030104;" d="M8.555,8.24c-0.755,0-1.42-0.081-1.993-0.198c-0.12,0.924-0.063,1.865,0.091,2.761
			c1.296,0.308,2.932,0.453,4.674,0.02c0.166-0.953,0.221-1.958,0.071-2.94C10.347,8.139,9.396,8.24,8.555,8.24z"/>
		<path style="fill:#030104;" d="M6.808,11.564c0.266,1.129,0.659,2.148,1.005,2.919c0.699,0.056,1.502,0.04,2.4-0.098
			c0.333-0.753,0.702-1.725,0.957-2.797c-0.717,0.155-1.413,0.221-2.075,0.221C8.269,11.809,7.497,11.71,6.808,11.564z"/>
		<path style="fill:#030104;" d="M14.407,9.786c-0.059-2.044-1.035-3.834-2.484-4.873L6.098,4.915
			C5.872,5.077,5.656,5.256,5.455,5.454c-0.334,0.273-0.633,0.59-0.883,0.952c0.012,0.008-0.393,0.742-0.413,0.729
			C3.923,7.65,3.767,8.227,3.705,8.862C3.654,9.163,3.623,9.469,3.614,9.784L3.61,10.106c0.371,3.545,2.692,6.219,5.401,6.219
			c2.7,0,5.021-2.667,5.397-6.203L14.407,9.786z M12.829,13.673c0.222-0.338,0.418-0.699,0.586-1.074
			C13.246,12.982,13.048,13.342,12.829,13.673z M14.048,10.042l-0.019,0.407c-0.019,0.127-0.041,0.252-0.064,0.376
			c0.021-0.118,0.04-0.236,0.055-0.355c-0.646,0.379-1.293,0.663-1.93,0.869c-0.032,0.154-0.063,0.308-0.101,0.464
			c-0.211,0.884-0.494,1.696-0.774,2.384c0.509-0.123,1.042-0.284,1.601-0.494c-0.463,0.692-1.028,1.256-1.658,1.652
			c0.229-0.155,0.45-0.33,0.66-0.524c-0.316,0.087-0.622,0.159-0.921,0.22c-0.103,0.223-0.2,0.423-0.289,0.599
			c-0.44,0.196-0.904,0.316-1.384,0.344c0.077-0.008,0.154-0.017,0.23-0.028l-0.026-0.017c0.009-0.015,0.19-0.315,0.441-0.82
			C9.405,15.174,8.966,15.2,8.553,15.2c-0.138,0-0.272-0.003-0.404-0.009c0.232,0.461,0.397,0.734,0.406,0.748l-0.032,0.02
			c-0.372-0.048-0.733-0.15-1.08-0.303c-0.083-0.161-0.174-0.345-0.272-0.551c-0.309-0.042-0.594-0.098-0.859-0.16
			c-0.343-0.288-0.661-0.629-0.945-1.017c0.371,0.149,0.862,0.311,1.47,0.427c-0.303-0.722-0.615-1.595-0.844-2.551
			c-0.038-0.159-0.069-0.315-0.102-0.472c-0.824-0.243-1.473-0.528-1.875-0.728c-0.01-0.062-0.021-0.123-0.03-0.187l-0.024-0.395
			c-0.015-0.021-0.016-0.033-0.016-0.043c0-0.064,0.002-0.129,0.004-0.193c0.245,0.136,0.888,0.469,1.804,0.765
			C5.62,9.585,5.619,8.678,5.741,7.833C5.214,7.671,4.805,7.488,4.525,7.344c0.12-0.258,0.257-0.504,0.411-0.736
			c0.227,0.113,0.552,0.254,0.975,0.387c0.194-0.744,0.5-1.429,0.912-2.05h1.034c-0.566,0.697-0.928,1.464-1.134,2.26
			C7.838,7.433,9.359,7.51,11.22,7.059c-0.21-0.744-0.561-1.46-1.091-2.114h1.03c0.383,0.577,0.673,1.208,0.868,1.89
			c0.317-0.099,0.644-0.212,0.978-0.342c0.16,0.23,0.305,0.474,0.432,0.73c-0.419,0.168-0.826,0.313-1.221,0.435
			c0.149,0.892,0.155,1.859,0.013,2.89c0.564-0.204,1.136-0.473,1.705-0.824c0,0,0.087-0.058,0.126-0.153
			c0.009,0.136,0.015,0.271,0.015,0.41C14.075,9.986,14.075,10.008,14.048,10.042z"/>
		<path style="fill:#030104;" d="M3.38,2.507C2.497,3.565,1.824,5.425,1.928,8.671L2.43,8.309c0,0,0.225-3.088,1.516-4.959
			C3.689,3.12,3.493,2.832,3.38,2.507z"/>
		<path style="fill:#030104;" d="M5.626,3.685c0.231,0,0.451-0.041,0.657-0.111L6.152,4.671h5.678c0,0,0.067-1.576-0.109-2.613
			h0.278c0.219,0,0.396-0.15,0.396-0.335V1.382c0-0.185-0.177-0.334-0.396-0.334H7.374C7.061,0.429,6.396,0,5.626,0
			c-1.07,0-1.94,0.827-1.94,1.842C3.686,2.858,4.557,3.685,5.626,3.685z M5.626,3.35c-0.496,0-0.94-0.212-1.235-0.545
			c0.451-0.463,1-0.782,1.674-0.842c0.072,0.059,0.169,0.095,0.276,0.095h0.124l-0.096,0.8L6.328,3.196
			C6.116,3.293,5.878,3.35,5.626,3.35z M5.626,0.334c0.575,0,1.079,0.286,1.362,0.713H6.506H6.341c-0.119,0-0.224,0.045-0.297,0.115
			C5.48,1.195,4.73,1.364,4.023,1.896c0-0.018-0.003-0.036-0.003-0.055C4.02,1.011,4.741,0.334,5.626,0.334z"/>
	</g>
</g>
<g>
</g>
<g>
</g>
<g>
</g>
<g>
</g>
<g>
</g>
<g>
</g>
<g>
</g>
<g>
</g>
<g>
</g>
<g>
</g>
<g>
</g>
<g>
</g>
<g>
</g>
<g>
</g>
<g>
</g>
</svg>
