<?xml version="1.0" encoding="iso-8859-1"?>
<!-- Generator: Adobe Illustrator 16.0.0, SVG Export Plug-In . SVG Version: 6.00 Build 0)  -->
<!DOCTYPE svg PUBLIC "-//W3C//DTD SVG 1.1//EN" "http://www.w3.org/Graphics/SVG/1.1/DTD/svg11.dtd">
<svg version="1.1" id="Capa_1" xmlns="http://www.w3.org/2000/svg" xmlns:xlink="http://www.w3.org/1999/xlink" x="0px" y="0px"
	 width="324.354px" height="324.354px" viewBox="0 0 324.354 324.354" style="enable-background:new 0 0 324.354 324.354;"
	 xml:space="preserve">
<g>
	<g>
		<path d="M232.691,65.392H64.735v171.834c0,4.791,2.786,9.493,4.876,13.463L248.412,71.475
			C243.639,67.92,239.087,65.392,232.691,65.392z M77.033,223.168V77.689h148.321L77.033,223.168z"/>
		<path d="M302.912,249.859h-22.963V94.815c0-7.188,1.346-14.063-1.122-20.312l37.752-36.266c3.387-3.387,5.999-7.878,6.148-12.643
			c0.162-5.011-1.429-9.911-4.966-13.448c-3.477-3.479-7.95-5.404-12.874-5.404c-4.942,0-9.476,1.925-13.013,5.455l-35.2,34.801
			c-7.218-3.534-15.312-6.203-23.983-6.203H77.033v-22.35C77.033,8.274,68.755,0,58.586,0S40.139,8.274,40.139,18.446v22.35H20.062
			c-10.169,0-18.447,8.278-18.447,18.447s8.278,18.446,18.447,18.446h20.077v159.536c0,11.932,5.731,22.602,11.64,31.11
			l14.045,11.079c8.355,5.326,19.717,7.338,30.606,7.338h146.625v19.155c0,10.172,8.274,18.446,18.446,18.446
			c10.166,0,18.446-8.274,18.446-18.446v-19.155h22.963c10.172,0,18.446-8.275,18.446-18.447S313.09,249.859,302.912,249.859z
			 M302.912,274.455h-35.26v31.453c0,3.398-2.751,6.148-6.149,6.148c-3.405,0-6.149-2.75-6.149-6.148v-31.453H96.431
			c-12.034,0-22.548-3.381-30.054-11.638c0.183,0.217,0.3,0.895,0.486,1.105c0.03,0.029-0.531,0.27-0.498,0.3
			c0.018,0.019-0.234-0.913-0.222-0.9c0.075,0.084-2.453,0.204-2.387,0.276c-5.999-7.146-11.319-16.279-11.319-26.373V65.392H20.062
			c-3.399,0-6.149-2.75-6.149-6.148c0-3.399,2.75-6.149,6.149-6.149h32.375V18.446c0-3.401,2.747-6.148,6.149-6.148
			c3.401,0,6.149,2.747,6.149,6.148v34.647h167.957c9.788,0,18.783,3.813,25.845,9.569l42.166-42.232
			c2.402-2.404,6.287-2.194,8.695,0.21c2.401,2.402,2.186,6.401-0.217,8.803l-45.396,42.625c4.347,6.5,3.867,14.352,3.867,22.746
			v167.342h35.26c3.398,0,6.148,2.75,6.148,6.148S306.311,274.455,302.912,274.455z"/>
		<path d="M79.032,258.02c4.837,3.729,10.833,4.138,17.399,4.138h158.922V94.815c0-4.975,1.646-10.526-0.594-14.609L79.032,258.02z
			 M243.057,249.859H103.763l139.294-142.764V249.859z"/>
	</g>
</g>
<g>
</g>
<g>
</g>
<g>
</g>
<g>
</g>
<g>
</g>
<g>
</g>
<g>
</g>
<g>
</g>
<g>
</g>
<g>
</g>
<g>
</g>
<g>
</g>
<g>
</g>
<g>
</g>
<g>
</g>
</svg>
