<?xml version="1.0" encoding="iso-8859-1"?>
<!-- Generator: Adobe Illustrator 18.1.1, SVG Export Plug-In . SVG Version: 6.00 Build 0)  -->
<svg version="1.1" id="Capa_1" xmlns="http://www.w3.org/2000/svg" xmlns:xlink="http://www.w3.org/1999/xlink" x="0px" y="0px"
	 viewBox="0 0 274.476 274.476" style="enable-background:new 0 0 274.476 274.476;" xml:space="preserve">
<g>
	<g>
		<path style="fill:#010002;" d="M256.572,214.807h-5.961V48.869l18.515-18.205c3.407-3.353,5.311-7.834,5.346-12.608
			c0.042-4.779-1.784-9.296-5.12-12.68C265.964,1.909,261.429,0,256.578,0c-4.732,0-9.189,1.826-12.554,5.137l-19.04,18.73H59.666
			v-5.967C59.666,8.031,51.634,0,41.765,0S23.864,8.031,23.864,17.901v5.967h-5.961c-9.869,0-17.901,8.031-17.901,17.901
			s8.031,17.901,17.901,17.901h5.961v161.971L5.355,239.838c-3.413,3.359-5.316,7.835-5.352,12.626
			c-0.036,4.791,1.79,9.302,5.137,12.692c3.389,3.449,7.924,5.346,12.763,5.346c4.726,0,9.177-1.826,12.554-5.137l15.001-14.756
			H214.81v5.967c0,9.869,8.031,17.901,17.901,17.901s17.901-8.031,17.901-17.901v-5.967h5.961c9.869,0,17.901-8.031,17.901-17.901
			S266.442,214.807,256.572,214.807z M256.572,238.675h-17.895v17.901c0,3.3-2.667,5.967-5.967,5.967s-5.967-2.667-5.967-5.967
			v-17.901H41.765c-0.352,0-0.65-0.137-0.991-0.197l-18.688,18.378c-1.164,1.14-2.673,1.712-4.183,1.712
			c-1.545,0-3.085-0.597-4.254-1.784c-2.309-2.345-2.279-6.128,0.072-8.437l22.077-21.713V47.735H17.903
			c-3.294,0-5.967-2.673-5.967-5.967c0-3.294,2.673-5.967,5.967-5.967h17.895V17.901c0-3.294,2.673-5.967,5.967-5.967
			s5.967,2.673,5.967,5.967v17.901h182.133l22.519-22.149c2.351-2.309,6.134-2.279,8.437,0.072c2.315,2.351,2.279,6.128-0.072,8.437
			l-22.071,21.707v182.873h17.895c3.3,0,5.967,2.667,5.967,5.967S259.872,238.675,256.572,238.675z"/>
		<path style="fill:#010002;" d="M47.732,47.735v167.168L217.728,47.735H47.732z M59.666,59.669h128.908L59.666,186.429V59.669z"/>
		<path style="fill:#010002;" d="M226.744,226.741V55.605L52.708,226.741H226.744z M214.81,214.807H81.868L214.81,84.073V214.807z"
			/>
	</g>
</g>
<g>
</g>
<g>
</g>
<g>
</g>
<g>
</g>
<g>
</g>
<g>
</g>
<g>
</g>
<g>
</g>
<g>
</g>
<g>
</g>
<g>
</g>
<g>
</g>
<g>
</g>
<g>
</g>
<g>
</g>
</svg>
