<?xml version="1.0" encoding="iso-8859-1"?>
<!-- Generator: Adobe Illustrator 16.0.0, SVG Export Plug-In . SVG Version: 6.00 Build 0)  -->
<!DOCTYPE svg PUBLIC "-//W3C//DTD SVG 1.1//EN" "http://www.w3.org/Graphics/SVG/1.1/DTD/svg11.dtd">
<svg version="1.1" id="Capa_1" xmlns="http://www.w3.org/2000/svg" xmlns:xlink="http://www.w3.org/1999/xlink" x="0px" y="0px"
	 width="87.605px" height="87.605px" viewBox="0 0 87.605 87.605" style="enable-background:new 0 0 87.605 87.605;"
	 xml:space="preserve">
<g>
	<g id="Connections">
		<g>
			<path d="M79.113,69.096c0.044-0.234,0.072-0.476,0.072-0.724V42.968c0-2.144-1.715-3.882-3.826-3.882H47.63V19.249
				c0-0.253-0.027-0.499-0.074-0.738c3.383-1.479,5.758-4.893,5.758-8.86c0-5.32-4.268-9.651-9.51-9.651
				c-5.243,0-9.51,4.331-9.51,9.651c0,3.968,2.375,7.381,5.757,8.86c-0.046,0.239-0.073,0.485-0.073,0.738v19.837h-27.73
				c-2.112,0-3.826,1.738-3.826,3.882v25.404c0,0.248,0.028,0.487,0.072,0.724c-3.382,1.481-5.756,4.896-5.756,8.864
				c0,5.32,4.267,9.646,9.51,9.646c5.242,0,9.51-4.324,9.51-9.646c0-3.968-2.375-7.384-5.757-8.864
				c0.044-0.234,0.072-0.476,0.072-0.724V46.852h23.904v21.814c0,0.15,0.027,0.296,0.044,0.441
				c-3.366,1.488-5.728,4.896-5.728,8.853c0,5.32,4.267,9.646,9.51,9.646c5.242,0,9.51-4.324,9.51-9.646
				c0-3.956-2.362-7.362-5.728-8.851c0.016-0.147,0.043-0.293,0.043-0.443V46.852h23.903v21.521c0,0.248,0.028,0.487,0.072,0.724
				c-3.382,1.481-5.757,4.896-5.757,8.864c0,5.32,4.268,9.646,9.511,9.646s9.51-4.324,9.51-9.646
				C84.869,73.992,82.495,70.577,79.113,69.096z M38.12,9.65c0-3.182,2.55-5.77,5.684-5.77c3.133,0,5.684,2.588,5.684,5.77
				c0,3.073-2.381,5.58-5.366,5.748c-0.106-0.009-0.209-0.032-0.317-0.032c-0.109,0-0.211,0.023-0.317,0.032
				C40.5,15.23,38.12,12.724,38.12,9.65z M17.931,77.96c0,3.181-2.551,5.765-5.684,5.765c-3.134,0-5.685-2.584-5.685-5.765
				c0-3.04,2.33-5.532,5.271-5.748c0.138,0.015,0.271,0.042,0.413,0.042c0.142,0,0.275-0.027,0.413-0.042
				C15.601,72.428,17.931,74.92,17.931,77.96z M49.487,77.96c0,3.181-2.551,5.765-5.684,5.765c-3.134,0-5.684-2.584-5.684-5.765
				c0-2.756,1.915-5.063,4.464-5.633c0.385,0.133,0.791,0.221,1.22,0.221c0.429,0,0.834-0.088,1.22-0.221
				C47.572,72.896,49.487,75.204,49.487,77.96z M75.359,83.725c-3.135,0-5.684-2.584-5.684-5.765c0-3.04,2.33-5.532,5.271-5.748
				c0.138,0.015,0.271,0.042,0.413,0.042s0.275-0.027,0.413-0.042c2.94,0.216,5.271,2.708,5.271,5.748
				C81.042,81.141,78.493,83.725,75.359,83.725z"/>
		</g>
	</g>
</g>
<g>
</g>
<g>
</g>
<g>
</g>
<g>
</g>
<g>
</g>
<g>
</g>
<g>
</g>
<g>
</g>
<g>
</g>
<g>
</g>
<g>
</g>
<g>
</g>
<g>
</g>
<g>
</g>
<g>
</g>
</svg>
