<?xml version="1.0" encoding="iso-8859-1"?>
<!-- Generator: Adobe Illustrator 16.0.0, SVG Export Plug-In . SVG Version: 6.00 Build 0)  -->
<!DOCTYPE svg PUBLIC "-//W3C//DTD SVG 1.1//EN" "http://www.w3.org/Graphics/SVG/1.1/DTD/svg11.dtd">
<svg version="1.1" id="Capa_1" xmlns="http://www.w3.org/2000/svg" xmlns:xlink="http://www.w3.org/1999/xlink" x="0px" y="0px"
	 width="190.936px" height="190.936px" viewBox="0 0 190.936 190.936" style="enable-background:new 0 0 190.936 190.936;"
	 xml:space="preserve">
<g>
	<path d="M182.845,115.522c1.079-6.755-5.457-12.225-12.508-12.997c-8.321-0.912-14.754,4.729-15.104,12.271
		c-3.164,0.32-5.951,1.726-8.462,4.059c-1.734,1.612-3.389,4.746-2.219,6.966c-0.274-0.073-0.51-0.186-0.794-0.248
		c0.638-8.007-5.075-12.475-12.399-11.359c-1.909-5.01-5.569-7.308-9.791-7.74c-10.251-3.854-24.951,2.903-25.397,14.201
		c-0.177-0.069-0.368-0.107-0.565-0.13c-1.257-12.188-24.622-16.293-28.09-3.408c-4.856-1.063-10.057,0.384-13.269,4.514
		c-2.572-8.66-8.897-14.395-20.91-9.339c-0.993,0.418-1.498,1.218-1.639,2.05c-3.675-0.737-7.289-0.339-10.017,0.965
		c-0.52,0.188-1.039,0.379-1.521,0.614c-2.712,1.324-4.821,3.952-5.102,6.986c-0.082,0.893,0.048,1.964,0.338,3.028
		c-4.933-0.652-10.38,1.75-13.15,5.626c-3.798,5.314-2.126,12.592,0.241,18.064c0.032,0.072,0.073,0.144,0.105,0.217
		c0.225,0.69,0.477,1.364,0.755,2.015c2.521,5.9,6.802,9.765,11.437,10.673c0.125,0.055,0.242,0.125,0.368,0.176
		c2.723,1.111,5.59,0.91,8.144-0.124c-0.163,2.76-0.352,5.52-0.585,8.272c-0.317,3.757-1.005,8.985,2.24,11.566
		c1.619,1.286,3.547,1.103,4.77-0.615c2.144-3.011,0.909-7.452,0.618-10.951c-0.161-1.938-0.368-3.85-0.6-5.759
		c2.723,2.887,6.873,3.619,11.3,0.072c4.755-2.642,7.94-7.648,10.191-12.833c0.02,0.021,0.043,0.042,0.063,0.062
		c3.855,8.778,16.791,14.463,24.626,11.433c-0.111,0.509-0.239,1.01-0.344,1.521c-0.732,3.555-1.855,7.591-0.756,11.121
		c0.909,2.92,4.851,2.813,5.804,0c1.101-3.25,0.483-6.946,0.591-10.358c0.073-2.312,0.224-4.621,0.368-6.93
		c2.656,1.906,5.413,2.359,8.074,1.791c4.249-0.479,8.17-3.146,11.146-6.849c1.28,2.085,3.222,3.441,5.502,4.127
		c0.606,0.334,1.24,0.646,1.957,0.907c2.697,0.981,5.535-0.414,8.041-0.892c-0.995,3.016-1.782,6.047-2.641,9.2
		c-0.767,2.812-3.191,9.802,2.182,9.802c4.546,0,4.879-5.388,5.352-8.738c0.33-2.34,0.537-4.565,0.545-6.772
		c5.516,2.447,12.098,1.131,13.489-4.747c2.217,0.773,4.823,0.846,6.968,0.394c2.85-0.6,5.25-2.643,7.143-5.069
		c2.296,2.213,5.027,2.405,7.583,1.522c0.548,0.044,1.095,0.086,1.646,0.037c0.752-0.068,1.404-0.309,2.008-0.631
		c-0.315,3.323-0.424,6.739-0.851,10.055c-0.513,1.258-0.665,2.756-0.689,4.296c0.005-0.001,0.01-0.001,0.015-0.002
		c-0.043,4.62,7.658,5.153,7.628,0.002c-0.009-1.529,0.028-3.082,0.122-4.602c0.057-0.919-0.396-1.68-1.066-2.172
		c-0.185-2.181-0.326-4.365-0.511-6.531c0.911,0.215,1.827,0.36,2.742,0.402c3.057,0.922,6.427,0.489,9.238-1.943
		c3.429-2.968,4.198-6.834,2.601-10.107c4.821-0.924,10.798-10.409,10.925-17.33c0.01-0.057,0.031-0.111,0.04-0.168
		C191.804,118.891,187.901,115.165,182.845,115.522z M41.034,155.544c-1.458,2.228-3.273,4.311-5.588,5.654
		c-0.233,0.136-0.461,0.159-0.689,0.188c-1.033-0.35-2.002-1.024-2.894-1.898c-0.78-1.077-1.43-2.327-1.904-3.177
		c0.093-0.168,0.195-0.33,0.267-0.508c1.159-2.837-2.488-4.323-4.556-3.045c-0.667,0.117-1.31,0.485-1.706,1.063
		c-0.248,0.361-0.503,0.664-0.757,0.979c-1.875,1.569-3.755,2.64-6.545,1.309c-3.666-1.749-6.186-5.562-7.611-9.234
		c-1.262-3.251-2.171-7.652-0.47-10.916c2.186-4.196,7.994-3.561,11.659-5.173c0.046-0.021,0.057-0.061,0.098-0.082
		c0.773-0.082,1.451-0.518,1.811-1.198c1.237-0.449,1.784-2.095,1.15-3.277c-0.89-1.664-1.196-3.003-1.098-4.099
		c0.49-0.454,1.128-0.825,1.848-1.168c1.374-0.655,3.069-0.65,4.514-0.408c0.808,0.137,1.337,0.476,2.008,0.906
		c-0.68,3.111,3.893,4.287,4.923,1.237c0.75-2.223,1.639-7.028,4.486-4.248c1.752,1.71,2.892,4.452,3.921,6.624
		c2.339,4.938,3.862,10.68,3.837,16.156C47.717,145.954,43.512,151.76,41.034,155.544z M81.663,151.011
		c-0.643-0.972-1.615-1.438-2.591-1.487c-0.255-0.456-0.498-0.906-0.719-1.337c-0.939-1.83-3.926-0.978-3.852,1.043
		c0.162,4.419-0.818,6.884-2.443,8.037c-5.816,3.125-14.662-6.878-17.855-13.417c0.98-3.75,1.537-8.125,1.446-12.498
		c0.242-0.041,0.398-0.243,0.413-0.482c0.015,0.07,0.016,0.134,0.032,0.205c0.195,0.87,1.699,0.947,1.83,0
		c0.751-5.402,4.412-7.789,8.741-8.022c0.634,0.172,1.268,0.397,1.895,0.743c0.999,0.551,2.221,0.439,3.142-0.121
		c0.263,0.077,0.528,0.119,0.789,0.208c1.244,0.425,2.521-0.477,2.888-1.64c1.689-5.359,5.535-7.432,9.017-7.204
		c5.039,1.451,8.979,5.605,4.743,10.757c-1.388,1.688-0.5,3.477,0.881,4.155c0.345,0.438,0.853,0.717,1.503,0.629
		c1.406-0.188,2.636-0.2,3.731-0.088C108.882,139.761,90.635,164.569,81.663,151.011z M160.554,121.181
		c1.222,0.089,2.103-1.255,1.797-2.358c-1.403-5.078,0.629-8.408,3.656-9.954c1.028-0.326,2.178-0.52,3.445-0.542
		c6.764-0.122,8.072,4.198,6.789,9.782c-0.264,1.142,0.16,2.06,0.862,2.624c0.138,1.021,1.347,1.732,2.348,1.514
		c2.627-0.575,4.511-0.338,5.733,0.497c0.288,1.206-0.059,2.921-0.798,5.076c-1.637,4.771-5.609,9.245-10.362,10.979
		c-1.483,0.542-2.613,2.371-1.575,3.873c2.38,3.444,1.688,5.551-0.221,6.495c-2.796,0.871-5.233-1.236-7.022-3.613
		c-1.276-1.695-4.116-1.822-4.882,0.417c-0.723-0.014-1.453,0.236-1.954,0.752c-1.073,1.107-2.078,1.855-3.194,2.276
		c-1.055-0.204-2.166-0.512-3.261-0.703c0.252-0.494,0.489-0.984,0.697-1.46c3.172-7.247,2.189-14.309-2.61-18.336
		C150.601,123.586,154.474,120.741,160.554,121.181z M147.243,145.149c-0.984,1.833-2.402,3.443-4.114,4.604
		c-2.164,0.729-4.872,0.612-8.12-0.939c-1.039-0.497-2.107-0.066-2.524,0.882c-1.255,0.203-1.986,1.474-1.738,2.695
		c0.114,0.565,0.343,1.038,0.583,1.498c-2.595,4.94-8.134,3.768-11.37-1.063c-0.844-1.26-2.419-1.78-3.788-0.993
		c-5.226,3.002-9.197,1.302-12.019-3.155c2.572-5.756,3.006-12.456-0.166-17.722c-0.018-0.029-0.037-0.057-0.056-0.086
		c-0.368-0.604-0.788-1.183-1.254-1.743c0.25-0.295,0.368-0.699,0.115-1.137c-4.27-7.402,4.905-15.733,13.488-17.147
		c4.275,0.493,7.942,3.072,9.101,7.886c0.375,1.559,1.865,2.107,3.251,1.841c0.156,1.163,1.255,2.371,2.551,1.865
		c3.316-1.292,6.65-1.004,7.675,2.079c-0.029,0.738-0.141,1.554-0.371,2.475c-0.42,1.686,0.786,3.045,2.427,3.184
		c0.965,0.082,1.808,0.276,2.593,0.52c3.658,2.516,5.322,6.517,5.258,10.272C148.462,142.351,147.985,143.763,147.243,145.149z"/>
	<path d="M186.911,86.298c-2.438-5.508-5.261-10.775-8.042-16.113c-1.157-2.22-4.42-2.524-6.109-0.787
		c-4.645,4.775-9.118,9.567-14.204,13.811c-8.88-21.177-17.782-71.763-45.552-66.127c-6.315,1.282-11.446,6.558-15.651,12.61
		c-2.106-3.201-5.045-6.082-8.399-8.082c1.686-3.633,3.929-7.036,4.822-10.967c0.561-2.47-3.085-4.285-4.262-1.797
		c-1.682,3.555-2.996,7.309-4.059,11.109c-2.157-0.799-4.404-1.25-6.683-1.127c-2.231,0.121-4.272,0.793-6.147,1.791
		c0.658-3.554,0.216-7.396-2.688-9.714c-1.558-1.243-3.786-0.12-3.354,1.952c0.741,3.554,1.973,6.775,1.229,10.46
		c-0.07,0.349-0.053,0.654,0.007,0.932c-1.763,1.821-3.247,3.952-4.422,6.161c-1.588-0.98-3.104-2.075-4.387-3.433
		c-0.835-0.884-1.448-2.148-2.52-2.776c-1.123-0.658-3.096-0.517-3.745,0.779c-1.439,2.872,1.273,5.109,3.386,6.695
		c1.716,1.288,3.534,2.217,5.53,2.81c-1.474,4.284-1.933,8.871-1.333,13.195c-2.841-0.397-5.782-0.448-7.979,0.889
		c-3.263,1.986-0.93,6.185,2.416,5.731c1.629-0.221,3.229-0.868,4.863-1.162c0.645-0.116,1.287-0.252,1.929-0.384
		c2.493,7.038,8.04,12.419,16.406,12.732c-4.26,7.626-9.351,14.752-15.885,18.195c-3.982-13.697-13.846-46.511-27.882-37.72
		C20.243,54.699,7.807,80.094,4.768,95.862c-0.35,1.815,2.071,3.016,3.073,1.295c7.094-12.193,14.243-24.186,22.555-35.619
		c6.815-9.374,10.519-7.839,15.516,2.27c4.16,8.417,6.428,17.823,9.273,26.735c0.715,2.239,2.939,3.6,5.263,2.988
		c22.276-5.861,31.556-39.464,42.662-56.617c3.246-5.014,8.018-11.699,14.595-11.953c8.011-0.309,13.691,13.51,16.497,19.282
		c7.428,15.287,10.824,32.452,19.472,47.166c0.991,1.687,3.712,2.751,5.432,1.424c5.598-4.313,10.54-9.132,15.439-14.127
		c1.978,3.788,3.928,7.584,5.67,11.505C182.244,94.777,188.916,90.825,186.911,86.298z M88.201,45.39
		c-2.27,4.089-4.684,9.408-7.443,14.836c-5.244-1.264-10.223-3.126-12.517-8.57c-2.17-5.15-1.317-11.004,0.569-16.089
		c1.708-4.605,5.309-8.88,10.184-10.127c6.547-1.676,11.232,4.678,15.323,8.966C91.953,38.349,89.929,42.278,88.201,45.39z"/>
	<path d="M69.356,64.121c-2.138,0.382-4.031,1.195-5.691,2.601c-0.415,0.351-0.777,0.76-1.127,1.174
		c-0.122,0.156-0.243,0.313-0.365,0.47c-0.018-0.025-0.126,0.019-0.33,0.137c-1.547,0.658-2.088,2.901-1.564,4.329
		c0.562,1.53,2.263,2.45,3.784,1.539c1.549-0.926,1.897-2.197,1.831-3.692c0.991-1.903,2.446-3.38,4.361-4.428
		C71.483,65.58,70.594,63.9,69.356,64.121z"/>
</g>
<g>
</g>
<g>
</g>
<g>
</g>
<g>
</g>
<g>
</g>
<g>
</g>
<g>
</g>
<g>
</g>
<g>
</g>
<g>
</g>
<g>
</g>
<g>
</g>
<g>
</g>
<g>
</g>
<g>
</g>
</svg>
