<?xml version="1.0" encoding="iso-8859-1"?>
<!-- Generator: Adobe Illustrator 18.1.1, SVG Export Plug-In . SVG Version: 6.00 Build 0)  -->
<svg version="1.1" id="Capa_1" xmlns="http://www.w3.org/2000/svg" xmlns:xlink="http://www.w3.org/1999/xlink" x="0px" y="0px"
	 viewBox="0 0 38.665 38.665" style="enable-background:new 0 0 38.665 38.665;" xml:space="preserve">
<g>
	<g>
		<path style="fill:#010002;" d="M19.334,5.53c-4.94,0-8.94,4.002-8.94,8.94c0,4.937,4,8.937,8.94,8.937
			c4.936,0,8.936-4,8.936-8.937C28.273,9.532,24.27,5.53,19.334,5.53z M19.457,6.984c0.964,0,1.557,0.65,1.578,1.499
			c0,0.83-0.613,1.501-1.618,1.501c-0.95,0-1.56-0.671-1.56-1.501C17.856,7.634,18.487,6.984,19.457,6.984z M21.919,20.82h-0.982
			v0.012h-3.004V20.82h-1.184v-1.667h1.184V12.92h-1.118v-1.744h1.118v-0.005h3.004v7.984h0.982V20.82z M4.343,0v29.979h9.431
			l5.557,8.686l5.559-8.686h9.432V0H4.343z M19.334,25.148c-5.899,0-10.682-4.781-10.682-10.679c0-5.901,4.782-10.681,10.682-10.681
			c5.897,0,10.679,4.78,10.679,10.681C30.013,20.367,25.234,25.148,19.334,25.148z"/>
	</g>
</g>
<g>
</g>
<g>
</g>
<g>
</g>
<g>
</g>
<g>
</g>
<g>
</g>
<g>
</g>
<g>
</g>
<g>
</g>
<g>
</g>
<g>
</g>
<g>
</g>
<g>
</g>
<g>
</g>
<g>
</g>
</svg>
