<?xml version="1.0" encoding="iso-8859-1"?>
<!-- Generator: Adobe Illustrator 16.0.0, SVG Export Plug-In . SVG Version: 6.00 Build 0)  -->
<!DOCTYPE svg PUBLIC "-//W3C//DTD SVG 1.1//EN" "http://www.w3.org/Graphics/SVG/1.1/DTD/svg11.dtd">
<svg version="1.1" id="Capa_1" xmlns="http://www.w3.org/2000/svg" xmlns:xlink="http://www.w3.org/1999/xlink" x="0px" y="0px"
	 width="93.51px" height="93.51px" viewBox="0 0 93.51 93.51" style="enable-background:new 0 0 93.51 93.51;" xml:space="preserve"
	>
<g>
	<g>
		<path d="M93.51,14c0-0.165-0.027-0.357-0.056-0.522c0-0.083,0-0.165-0.026-0.248c-0.029-0.11-0.057-0.22-0.11-0.33
			c-0.028-0.138-0.083-0.275-0.138-0.413c-0.027-0.055-0.056-0.11-0.082-0.165c-0.084-0.165-0.166-0.358-0.275-0.495
			c0,0,0-0.028-0.027-0.028c-0.055-0.055-0.109-0.11-0.166-0.192c-0.109-0.137-0.191-0.248-0.328-0.385
			c-0.084-0.083-0.192-0.165-0.275-0.22c-0.11-0.083-0.192-0.165-0.303-0.248s-0.221-0.11-0.33-0.192
			c-0.109-0.055-0.221-0.11-0.33-0.165c-0.139-0.055-0.248-0.083-0.385-0.11c-0.11-0.028-0.221-0.083-0.33-0.083
			c-0.166-0.028-0.33-0.028-0.496-0.055c-0.082,0-0.137-0.027-0.219-0.027h-0.057l0,0h-64.63c-0.688,0-1.348,0.165-1.925,0.495
			L1.981,22.581c-0.028,0.027-0.055,0.055-0.083,0.055c-0.248,0.165-0.495,0.33-0.715,0.55c0,0-0.027,0-0.027,0.027
			c-0.22,0.22-0.385,0.468-0.55,0.715c-0.055,0.083-0.083,0.137-0.11,0.22c-0.11,0.192-0.192,0.413-0.275,0.633
			c-0.027,0.083-0.055,0.165-0.083,0.248C0.055,25.331,0,25.634,0,25.964l0,0v53.52c0,2.146,1.733,3.904,3.905,3.904h68.536
			c0.906,0,1.787-0.33,2.475-0.906l17.162-14.22c0.879-0.743,1.402-1.843,1.402-2.997V14.028C93.51,14.028,93.51,14.028,93.51,14z
			 M85.698,63.476L85.698,63.476h-4.812c-0.854,0-1.568,0.688-1.568,1.568c0,0.854,0.688,1.566,1.568,1.566l0.961,0.057
			l-5.527,4.564v-43.15l9.352-6.546v41.94L85.698,63.476L85.698,63.476z M14.082,72.606c-0.495-0.715-1.458-0.906-2.172-0.412
			l-3.905,2.642c-0.11,0.082-0.193,0.192-0.275,0.303V29.896l60.807-0.027v45.763H12.405l1.265-0.852
			C14.385,74.284,14.577,73.321,14.082,72.606z M26.458,17.933h50.771l-5.914,4.153l-52.721,0.027L26.458,17.933z"/>
		<path d="M24.891,48.515c0.853,0,1.567-0.688,1.567-1.566v-4.675c0-0.853-0.688-1.567-1.567-1.567s-1.567,0.688-1.567,1.567v4.703
			C23.35,47.827,24.038,48.515,24.891,48.515z"/>
		<path d="M24.891,39.11c0.853,0,1.567-0.688,1.567-1.568v-4.703c0-0.853-0.688-1.568-1.567-1.568s-1.567,0.688-1.567,1.568v4.703
			C23.35,38.422,24.038,39.11,24.891,39.11z"/>
		<path d="M24.891,57.948c0.853,0,1.567-0.688,1.567-1.567v-4.703c0-0.853-0.688-1.567-1.567-1.567s-1.567,0.688-1.567,1.567v4.703
			C23.35,57.233,24.038,57.948,24.891,57.948z"/>
		<path d="M16.695,72.388c0.303,0,0.605-0.084,0.88-0.275l3.905-2.641c0.715-0.495,0.907-1.457,0.413-2.172
			c-0.495-0.716-1.458-0.908-2.173-0.413l-3.905,2.64c-0.715,0.496-0.908,1.459-0.413,2.174
			C15.705,72.167,16.2,72.388,16.695,72.388z"/>
		<path d="M62.1,66.584h4.703c0.854,0,1.568-0.688,1.568-1.567c0-0.881-0.688-1.568-1.568-1.568H62.1
			c-0.852,0-1.565,0.688-1.565,1.568C60.534,65.897,61.223,66.584,62.1,66.584z"/>
		<path d="M52.695,66.584h4.703c0.853,0,1.566-0.688,1.566-1.567c0-0.881-0.688-1.568-1.566-1.568h-4.703
			c-0.854,0-1.567,0.688-1.567,1.568C51.128,65.897,51.814,66.584,52.695,66.584z"/>
		<path d="M43.289,66.584h4.704c0.853,0,1.565-0.688,1.565-1.567c0-0.881-0.688-1.568-1.565-1.568h-4.704
			c-0.853,0-1.567,0.688-1.567,1.568C41.722,65.897,42.41,66.584,43.289,66.584z"/>
		<path d="M24.148,66.584c0.028,0,0.66,0,0.743,0h4.263c0.853,0,1.568-0.688,1.568-1.567c0-0.881-0.688-1.568-1.568-1.568h-2.695
			v-2.364c0-0.853-0.688-1.566-1.567-1.566s-1.567,0.688-1.567,1.566v2.86c0,0.33,0,0.66,0,1.072
			C23.35,65.759,23.35,66.584,24.148,66.584z"/>
		<path d="M33.856,66.584h4.703c0.853,0,1.568-0.688,1.568-1.567c0-0.881-0.688-1.541-1.568-1.541h-4.703
			c-0.853,0-1.568,0.688-1.568,1.568S33.004,66.584,33.856,66.584z"/>
	</g>
</g>
<g>
</g>
<g>
</g>
<g>
</g>
<g>
</g>
<g>
</g>
<g>
</g>
<g>
</g>
<g>
</g>
<g>
</g>
<g>
</g>
<g>
</g>
<g>
</g>
<g>
</g>
<g>
</g>
<g>
</g>
</svg>
