<?xml version="1.0" encoding="iso-8859-1"?>
<!-- Generator: Adobe Illustrator 16.0.0, SVG Export Plug-In . SVG Version: 6.00 Build 0)  -->
<!DOCTYPE svg PUBLIC "-//W3C//DTD SVG 1.1//EN" "http://www.w3.org/Graphics/SVG/1.1/DTD/svg11.dtd">
<svg version="1.1" id="Capa_1" xmlns="http://www.w3.org/2000/svg" xmlns:xlink="http://www.w3.org/1999/xlink" x="0px" y="0px"
	 width="940.2px" height="940.2px" viewBox="0 0 940.2 940.2" style="enable-background:new 0 0 940.2 940.2;" xml:space="preserve"
	>
<g>
	<path d="M414.226,674.899c0-49.399,15.5-95.3,41.9-133h-265.7c-13.8,0-25-11.199-25-25c0-13.8,11.2-25,25-25h313.1
		c39.5-31,89.299-49.5,143.299-49.5c18.701,0,36.9,2.2,54.4,6.4V52.9c0-29.2-23.699-52.9-52.9-52.9H364.626h-94.301v17.5
		c0.2,1.8,0.301,3.7,0.301,5.6V168c0,41.1-33.4,74.5-74.5,74.5h-144.9c-1.5,0-3.1-0.1-4.6-0.2h-18.5v554c0,29.2,23.7,52.9,52.9,52.9
		h283.601h128.4C444.825,806.5,414.226,744.2,414.226,674.899z M190.426,356.3h369.899c13.801,0,25,11.2,25,25s-11.199,25-25,25
		H190.426c-13.8,0-25-11.2-25-25S176.625,356.3,190.426,356.3z M375.325,669.399h-185c-13.8,0-25-11.199-25-25c0-13.8,11.2-25,25-25
		h185c13.801,0,25,11.2,25,25C400.325,658.2,389.126,669.399,375.325,669.399z"/>
	<path d="M51.226,212.5h144.9c24.6,0,44.5-19.9,44.5-44.5V23.1c0-13.4-11-22.3-22.4-22.3c-5.5,0-11,2-15.6,6.6l-167.2,167.1
		C21.426,188.5,31.326,212.5,51.226,212.5z"/>
	<path d="M835.526,810.6l-10.801-10.8L813.926,789c22.299-32.5,35.299-71.8,35.299-114.2c0-81.6-48.5-152-118.1-184.1
		c-4.9-2.301-9.9-4.301-15-6.2c-4.9-1.8-9.9-3.4-15-4.8c-17.301-4.801-35.5-7.4-54.4-7.4c-31,0-60.4,7-86.6,19.5
		c-25.301,12-47.699,29.1-65.9,50c-31.099,35.6-49.9,82.1-49.9,133c0,74.1,40,139,99.5,174.3c9.801,5.8,20.201,10.9,31.102,15
		c22.398,8.5,46.6,13.2,72,13.2c8.299,0,16.398-0.5,24.398-1.5c33-4,63.5-15.9,89.701-33.9l10.699,10.9l10.701,10.7l65.699,65.7
		c7.301,7.3,16.9,11,26.5,11s19.199-3.7,26.5-11c14.6-14.601,14.6-38.4,0-53L835.526,810.6z M646.825,547.399
		c19.4,0,37.9,4.4,54.4,12.2c5.201,2.5,10.201,5.3,15,8.4c5.301,3.399,10.301,7.3,15,11.399c26.4,23.4,43.1,57.5,43.1,95.5
		s-16.699,72.101-43.1,95.5c-4.699,4.2-9.699,8-15,11.4c-4.799,3.1-9.799,5.9-15,8.4c-16.5,7.8-34.9,12.199-54.4,12.199
		c-70.299,0-127.5-57.199-127.5-127.5C519.325,604.6,576.426,547.399,646.825,547.399z"/>
</g>
<g>
</g>
<g>
</g>
<g>
</g>
<g>
</g>
<g>
</g>
<g>
</g>
<g>
</g>
<g>
</g>
<g>
</g>
<g>
</g>
<g>
</g>
<g>
</g>
<g>
</g>
<g>
</g>
<g>
</g>
</svg>
