<?xml version="1.0" encoding="iso-8859-1"?>
<!-- Generator: Adobe Illustrator 18.1.1, SVG Export Plug-In . SVG Version: 6.00 Build 0)  -->
<svg version="1.1" id="Capa_1" xmlns="http://www.w3.org/2000/svg" xmlns:xlink="http://www.w3.org/1999/xlink" x="0px" y="0px"
	 viewBox="0 0 256.098 256.098" style="enable-background:new 0 0 256.098 256.098;" xml:space="preserve">
<g>
	<path style="fill:#030104;" d="M227.284,207.911l-11.56-1.894c-4.408-0.619-8.66,2.893-9.666,7.667l-0.999,4.767l-27.899-7.528
		c1.885-4.276,2.762-10.551,2.884-15.827l25.634-8.672l1.886,5.027c2.122,4.402,6.532,7.541,10.798,6.154l11.176-3.645
		c4.395-1.51,6.541-6.413,5.029-11.299l-9.416-29.02c-1.51-4.9-6.405-7.416-10.801-6.033l-11.196,3.641
		c-4.396,1.389-6.774,6.529-5.141,11.312l1.261,5.282l-13.831,4.394c-0.741-11.435,7.42-26.011,16.343-31.536V54.529
		c0-26.244-33.916-57.782-73.75-54.258C88.228-3.253,54.312,28.285,54.312,54.529v86.172c8.908,5.525,17.081,20.102,16.336,31.536
		l-13.825-4.394l1.26-5.282c1.637-4.782-0.759-9.923-5.154-11.312l-11.183-3.641c-4.395-1.383-9.292,1.133-10.799,6.033
		l-9.417,29.02c-1.508,4.886,0.626,9.789,5.029,11.299l11.176,3.645c4.268,1.387,8.663-1.752,10.8-6.154l1.886-5.027l25.632,8.672
		c0.738,5.654,0.999,11.551,2.873,15.827l-27.887,7.528l-0.999-4.767c-1.004-4.774-5.275-8.286-9.67-7.667l-11.557,1.894
		c-4.52,0.625-7.54,5.397-6.767,10.422l4.875,30.019c0.768,5.028,5.162,8.292,9.683,7.67l11.679-1.892
		c4.159-0.62,7.667-5.899,6.775-10.3l-0.987-5.152l34.033-8.667c14.435,9.045,66.441,8.543,79.891,0l34.033,8.667l-1,5.152
		c-0.891,4.4,2.65,9.68,6.787,10.3l11.678,1.892c4.513,0.622,8.921-2.642,9.686-7.67l4.888-30.019
		C234.822,213.309,231.805,208.536,227.284,207.911z M101.289,195.466h-10.29v-15.57h10.29V195.466z M101.289,174.494h-10.29v-15.58
		h10.29V174.494z M94.499,121.358c-8.663,0-15.688-7.034-15.688-15.698c0-8.665,7.025-15.704,15.688-15.704
		c8.667,0,15.713,7.04,15.713,15.704C110.212,114.323,103.166,121.358,94.499,121.358z M122.005,195.466h-10.291v-15.57h10.291
		V195.466z M122.005,174.494h-10.291v-15.58h10.291V174.494z M115.475,148.996l12.56-24.994l12.44,24.994H115.475z M144.369,195.466
		H134.07v-15.57h10.299V195.466z M144.369,174.494H134.07v-15.58h10.299V174.494z M165.117,195.466h-10.308v-15.57h10.308V195.466z
		 M165.117,174.494h-10.308v-15.58h10.308V174.494z M161.576,121.358c-8.661,0-15.704-7.034-15.704-15.698
		c0-8.665,7.043-15.704,15.704-15.704c8.678,0,15.709,7.04,15.709,15.704C177.285,114.323,170.254,121.358,161.576,121.358z"/>
</g>
<g>
</g>
<g>
</g>
<g>
</g>
<g>
</g>
<g>
</g>
<g>
</g>
<g>
</g>
<g>
</g>
<g>
</g>
<g>
</g>
<g>
</g>
<g>
</g>
<g>
</g>
<g>
</g>
<g>
</g>
</svg>
