<?xml version="1.0" encoding="iso-8859-1"?>
<!-- Generator: Adobe Illustrator 18.1.1, SVG Export Plug-In . SVG Version: 6.00 Build 0)  -->
<svg version="1.1" id="Capa_1" xmlns="http://www.w3.org/2000/svg" xmlns:xlink="http://www.w3.org/1999/xlink" x="0px" y="0px"
	 viewBox="0 0 25.813 25.813" style="enable-background:new 0 0 25.813 25.813;" xml:space="preserve">
<g>
	<path style="fill:#030104;" d="M13.953,14c0-1.105,0.895-2,2-2s2,0.895,2,2s-0.895,2-2,2S13.953,15.105,13.953,14z M7.953,12
		c-1.105,0-2,0.895-2,2s0.895,2,2,2s2-0.895,2-2S9.058,12,7.953,12z M21.953,10h-0.161c0.004-6.996-4.665-10-9.839-10
		C6.372,0,1.212,3.464,2.167,11.715C1.422,12.4,0.953,13.522,0.953,14.84c0,1.872,1.793,3.478,3.182,3.987
		c0.45,1.485,1.357,2.829,2.65,3.916c0.188,0.157,0.416,0.234,0.643,0.234c0.285,0,0.568-0.121,0.766-0.356
		c0.355-0.423,0.301-1.054-0.122-1.409c-1.144-0.961-1.864-2.112-2.141-3.423c-0.091-0.431-0.53-0.755-0.969-0.793
		c-0.449-0.039-2.009-1.134-2.009-2.156c0-0.479,0.101-0.883,0.251-1.194C3.388,13.858,3.65,14,3.953,14c0.552,0,1-0.447,1-1v-0.961
		c0.037-0.634,0.127-1.291,0.286-1.937c1.372-0.465,2.525,0.29,3.714-3.212c1.743,5.181,6.253,2.194,9.351,2.052
		c0.358,0.88,0.581,1.907,0.649,3.098V13c0,0.553,0.447,1,1,1v2.485c-0.371,0.308-0.758,0.515-1,0.515
		c-0.473,0-0.881,0.331-0.979,0.793c-0.188,0.893-0.591,1.721-1.193,2.463c-0.349,0.429-0.284,1.059,0.145,1.406
		c0.43,0.351,1.059,0.284,1.406-0.145c0.657-0.808,1.137-1.697,1.43-2.652c0.51-0.162,1.027-0.472,1.497-0.865h0.687
		c-0.548,2.776-2.095,4.081-2.394,4.304c-0.265,0.113-1.758,0.677-4.829,0.845c-0.207-1.11-1.363-1.962-2.77-1.962
		c-1.554,0-2.813,1.036-2.813,2.313s1.259,2.313,2.813,2.313c0.982,0,1.843-0.415,2.347-1.041c4.156-0.16,5.939-1.021,6.097-1.106
		c0.125-0.083,2.766-1.909,3.267-6.233c0.731-0.545,1.195-1.429,1.195-2.433v-2C24.859,11.343,23.609,10,21.953,10z"/>
</g>
<g>
</g>
<g>
</g>
<g>
</g>
<g>
</g>
<g>
</g>
<g>
</g>
<g>
</g>
<g>
</g>
<g>
</g>
<g>
</g>
<g>
</g>
<g>
</g>
<g>
</g>
<g>
</g>
<g>
</g>
</svg>
