<?xml version="1.0" encoding="iso-8859-1"?>
<!-- Generator: Adobe Illustrator 18.1.1, SVG Export Plug-In . SVG Version: 6.00 Build 0)  -->
<svg version="1.1" id="Capa_1" xmlns="http://www.w3.org/2000/svg" xmlns:xlink="http://www.w3.org/1999/xlink" x="0px" y="0px"
	 viewBox="0 0 14.45 14.45" style="enable-background:new 0 0 14.45 14.45;" xml:space="preserve">
<g>
	<g>
		<path style="fill:#030104;" d="M14.395,5.289c-0.034-0.024-0.079-0.027-0.117-0.011l-0.73,0.31v2.87L12.83,8.833v-2.94
			l-1.14,0.484c-0.011,0.005-0.018,0.016-0.028,0.023c-0.017-0.016-0.037-0.028-0.063-0.032L0.143,4.557
			c-0.036-0.004-0.072,0.005-0.1,0.029S0,4.644,0,4.68v7.44c0,0.062,0.045,0.115,0.106,0.123l11.456,1.723
			c0.006,0.001,0.013,0.001,0.019,0.001c0.029,0,0.058-0.01,0.08-0.029c0.006,0.004,0.008,0.01,0.013,0.013
			c0.021,0.012,0.042,0.017,0.064,0.017c0.021,0,0.041-0.004,0.061-0.015l2.588-1.473c0.038-0.023,0.063-0.065,0.063-0.11V5.393
			C14.45,5.351,14.43,5.312,14.395,5.289z"/>
		<polygon style="fill:#030104;" points="12.872,2.516 13.119,2.396 12.871,2.516 		"/>
		<path style="fill:#030104;" d="M0.138,4.011l11.505,1.747c0.007,0,0.014,0.001,0.019,0.001c0.017,0,0.032-0.003,0.047-0.009
			l2.514-1.014c0.051-0.021,0.083-0.074,0.077-0.129c-0.007-0.056-0.05-0.101-0.104-0.11L7.682,3.449l3.756-0.246
			c0.016-0.001,0.032-0.005,0.047-0.012l1.387-0.674l-0.854,0.075l0.54-0.336l1.067-0.104L13.12,2.398l1.233-0.6
			c0.053-0.026,0.081-0.087,0.065-0.145c-0.016-0.058-0.071-0.098-0.131-0.092l-4.435,0.35L9.788,0.755
			C9.78,0.595,9.642,0.472,9.482,0.482L5.578,0.891C5.418,0.9,5.296,1.037,5.306,1.197l0.067,1.067L3.111,2.442
			c-0.014,0-0.028,0.004-0.04,0.01L0.227,3.695C0.203,3.706,0.183,3.724,0.17,3.746L0.106,3.774C0.055,3.797,0.026,3.85,0.033,3.905
			C0.041,3.96,0.083,4.004,0.138,4.011z M5.9,1.453l3.326-0.376l0.051,0.878L5.952,2.217L5.9,1.453z M6.565,3.522l7.148,1.15
			l-2.065,0.833L0.984,3.887L6.565,3.522z"/>
	</g>
</g>
<g>
</g>
<g>
</g>
<g>
</g>
<g>
</g>
<g>
</g>
<g>
</g>
<g>
</g>
<g>
</g>
<g>
</g>
<g>
</g>
<g>
</g>
<g>
</g>
<g>
</g>
<g>
</g>
<g>
</g>
</svg>
